<?xml version="1.0" encoding="UTF-8" standalone="no"?>
<!DOCTYPE svg PUBLIC "-//W3C//DTD SVG 1.1//EN" "http://www.w3.org/Graphics/SVG/1.1/DTD/svg11.dtd">
<svg version="1.1" xmlns="http://www.w3.org/2000/svg" xmlns:xlink="http://www.w3.org/1999/xlink" preserveAspectRatio="xMidYMid meet" viewBox="0 0 640 640" width="640" height="640"><defs><path d="M7.8 285.85C20.49 263.93 121.95 88.59 134.63 66.67C147.64 46.5 169.11 34.15 193.17 32.85C218.54 32.85 421.46 32.85 446.83 32.85C470.89 34.15 492.36 46.5 505.37 66.67C518.05 88.65 619.51 264.52 632.2 286.5C642.6 307.97 642.6 332.68 632.2 354.15C619.51 376.07 518.05 551.41 505.37 573.33C492.36 593.5 470.89 605.85 446.83 607.15C421.46 607.15 218.54 607.15 193.17 607.15C169.11 605.85 147.64 593.5 134.63 573.33C126.18 558.68 83.9 485.4 7.8 353.5C0.87 322.71 0.87 300.16 7.8 285.85Z" id="bv7kQilQX"></path></defs><g><g><g><use xlink:href="#bv7kQilQX" opacity="1" fill="#daa520" fill-opacity="1"></use><g><use xlink:href="#bv7kQilQX" opacity="1" fill-opacity="0" stroke="#000000" stroke-width="1" stroke-opacity="0"></use></g></g></g></g></svg>